<?xml version="1.0" encoding="UTF-8"?>
<svg width="718px" height="205px" viewBox="0 0 718 205" version="1.1" xmlns="http://www.w3.org/2000/svg" xmlns:xlink="http://www.w3.org/1999/xlink">
    <!-- Generator: Sketch 63.1 (92452) - https://sketch.com -->
    <title>Bookify</title>
    <desc>Created with Sketch.</desc>
    <g id="Page-1" stroke="none" stroke-width="1" fill="none" fill-rule="evenodd">
        <path d="M59.7287234,159 C77.6507092,158.864469 91.1764184,155.154304 100.305851,147.869505 C109.435284,140.584707 114,129.691392 114,115.18956 C114,107.193223 111.945035,100.416667 107.835106,94.8598901 C103.725177,89.3031136 97.8297872,85.5082418 90.1489362,83.4752747 C96.9539007,80.9001832 102.108156,76.9020147 105.611702,71.4807692 C109.115248,66.0595238 110.867021,59.5201465 110.867021,51.8626374 C110.867021,38.5805861 105.931738,28.4496337 96.0611702,21.4697802 C86.1906028,14.4899267 71.7890071,11 52.856383,11 L52.856383,11 L0,11 L0,159 L59.7287234,159 Z M52.4848485,74 L34,74 L34,40 L51.3737374,40 C59.3198653,40 65.0774411,41.3660714 68.6464646,44.0982143 C72.2154882,46.8303571 74,51.2996032 74,57.5059524 C74,62.9027778 72.3501684,66.984127 69.0505051,69.75 C65.7508418,72.515873 60.2289562,73.9325397 52.4848485,74 L52.4848485,74 Z M58.7775176,131 L34,131 L34,97 L60.501171,97 C73.5003903,97.0649475 80,103.007641 80,114.82808 C80,119.95893 78.1686183,123.936963 74.5058548,126.762178 C70.8430913,129.587393 65.6003123,131 58.7775176,131 L58.7775176,131 Z M185.103448,159 C201.655172,159 214.775862,153.970588 224.465517,143.911765 C234.155172,133.852941 239,120.254902 239,103.117647 L239,103.117647 L239,101.898396 C239,84.3547237 234.172414,70.4857398 224.517241,60.2914439 C214.862069,50.097148 201.655172,45 184.896552,45 C173.931034,45 164.37931,47.3030303 156.241379,51.9090909 C148.103448,56.5151515 141.862069,63.1024955 137.517241,71.671123 C133.172414,80.2397504 131,90.0106952 131,100.983957 L131,100.983957 L131.103448,106.775401 C131.862069,122.828877 137.068966,135.546346 146.724138,144.927807 C156.37931,154.309269 169.172414,159 185.103448,159 Z M185.108108,137 C178.477477,137 173.468468,134.55814 170.081081,129.674419 C166.693694,124.790698 165,117.116279 165,106.651163 L165,106.651163 L165.108108,100.267442 C166.117117,82.755814 172.711712,74 184.891892,74 C198.297297,74 205,84.1511628 205,104.453488 L205,104.453488 L205,108.011628 C204.711712,127.337209 198.081081,137 185.108108,137 Z M299.103448,159 C315.655172,159 328.775862,153.970588 338.465517,143.911765 C348.155172,133.852941 353,120.254902 353,103.117647 L353,103.117647 L353,101.898396 C353,84.3547237 348.172414,70.4857398 338.517241,60.2914439 C328.862069,50.097148 315.655172,45 298.896552,45 C287.931034,45 278.37931,47.3030303 270.241379,51.9090909 C262.103448,56.5151515 255.862069,63.1024955 251.517241,71.671123 C247.172414,80.2397504 245,90.0106952 245,100.983957 L245,100.983957 L245.103448,106.775401 C245.862069,122.828877 251.068966,135.546346 260.724138,144.927807 C270.37931,154.309269 283.172414,159 299.103448,159 Z M299.108108,137 C292.477477,137 287.468468,134.55814 284.081081,129.674419 C280.693694,124.790698 279,117.116279 279,106.651163 L279,106.651163 L279.108108,100.267442 C280.117117,82.755814 286.711712,74 298.891892,74 C312.297297,74 319,84.1511628 319,104.453488 L319,104.453488 L319,108.011628 C318.711712,127.337209 312.081081,137 299.108108,137 Z M405.531309,159 L405.531309,127.137931 L415.265655,117.310345 L439.447818,159 L479,159 L437.603416,93.1034483 L476.43833,47.0689655 L435.041746,47.0689655 L409.01518,79.7586207 L405.531309,84.4137931 L405.531309,0 L371,0 L371,159 L405.531309,159 Z M504,34 C509.918004,34 514.730838,32.4105691 518.438503,29.2317073 C522.146168,26.0528455 524,21.9756098 524,17 C524,12.0243902 522.146168,7.94715447 518.438503,4.76829268 C514.730838,1.58943089 509.918004,0 504,0 C498.081996,0 493.269162,1.58943089 489.561497,4.76829268 C485.853832,7.94715447 484,12.0243902 484,17 C484,21.9756098 485.853832,26.0528455 489.561497,29.2317073 C493.269162,32.4105691 498.081996,34 504,34 Z M518,159 L518,45 L484,45 L484,159 L518,159 Z M586.109439,159 L586.109439,72.4026975 L607.46922,72.4026975 L607.46922,48.5067437 L586.109439,48.5067437 L586.109439,40.0308285 C586.109439,31.044316 591.27223,26.5510597 601.597811,26.5510597 C605.107159,26.5510597 607.907889,26.8574181 610,27.4701349 L610,27.4701349 L609.898769,2.14450867 C604.094847,0.714836224 598.763338,0 593.904241,0 C580.609211,0 570.28363,3.47206166 562.927497,10.416185 C555.571363,17.3603083 551.893297,27.1297367 551.893297,39.7244701 L551.893297,39.7244701 L551.893297,48.5067437 L536,48.5067437 L536,72.4026975 L551.893297,72.4026975 L551.893297,159 L586.109439,159 Z M638.208955,205 C654.19403,205 665.343284,197.903226 671.656716,183.709677 L671.656716,183.709677 L673.570896,179.046083 L718,51 L681.630597,51 L663.496269,112.843318 L646.268657,51 L610,51 L647.880597,161.709677 L645.160448,169.009217 C643.951493,172.591398 642.087687,175.075269 639.56903,176.460829 C637.050373,177.84639 633.406716,178.539171 628.63806,178.539171 L628.63806,178.539171 L624.205224,178.539171 L624.205224,202.97235 C629.108209,204.324117 633.776119,205 638.208955,205 Z" id="Bookify" fill="#FFFFFF" fill-rule="nonzero"></path>
    </g>
</svg>